<svg xmlns="http://www.w3.org/2000/svg" viewBox="0 0 736.76 657.51" data-guides="{&quot;vertical&quot;:[],&quot;horizontal&quot;:[]}"><defs><linearGradient id="tSvgGradient12bc692a6f4" x1="433.19" x2="39.02" y1="74.73" y2="449.85" gradientUnits="userSpaceOnUse"><stop offset="0" stop-color="hsl(56.88,100%,50%)" stop-opacity="1"/><stop offset="1" stop-color="hsl(58.32,100%,50%)" stop-opacity="1"/></linearGradient><linearGradient id="tSvgGradient3bfa7850e" x1="50.43" x2="445.02" y1="467.35" y2="102.85" gradientUnits="userSpaceOnUse"><stop offset="0.000" stop-color="hsl(98.676,100%,73.53%)" stop-opacity="1.000"/><stop offset="1.000" stop-color="hsl(161.78400000000002,100%,73.53%)" stop-opacity="1.000"/></linearGradient><linearGradient id="tSvgGradient8f724311de" x1="652.10" x2="278.08" y1="623.58" y2="223.00" gradientUnits="userSpaceOnUse"><stop offset="0" stop-color="hsl(139.392,87.01%,45.29%)" stop-opacity="1"/><stop offset="1" stop-color="hsl(56.952000000000005,93.67999999999999%,62.74999999999999%)" stop-opacity="1"/></linearGradient></defs><path fill="#ffffff" fill-opacity="1" stroke="" stroke-opacity="0" stroke-width="1" id="tSvg4332a7a7f" title="Ellipse 7" d="M548.4279 73.6143C558.5556 73.6143 566.7657 81.8244 566.7657 91.9521C566.7657 102.0799 558.5556 110.29 548.4279 110.29C538.3001 110.29 530.09 102.0799 530.09 91.9521C530.09 81.8244 538.3001 73.6143 548.4279 73.6143Z" style="transform-origin: 548.43px 91.95px;"/><path fill="url(#tSvgGradient12bc692a6f4)" fill-opacity="1" stroke="" stroke-opacity="0" stroke-width="1" id="tSvg1256aafe70a" title="Rectangle 1" d="M443.7178 508.4754C417.8178 530.8736 378.6644 528.0349 356.2661 502.1349L16.1021 108.7895C-6.2962 82.8895 -3.4575 43.7361 22.4425 21.3378L28.4936 16.1049C54.3936 -6.2934 93.5471 -3.4547 115.9453 22.4453L456.1094 415.7907C478.5076 441.6907 475.6689 480.8442 449.7689 503.2424Z" style="transform-origin: 236.11px 262.29px;"/><path fill="url(#tSvgGradient8f724311de)" fill-opacity="1" stroke="none" stroke-opacity="1" stroke-width="1" id="tSvgaadbd381ad" title="Rectangle 3" d="M208.3802 627.496C186.7385 600.9607 190.7056 561.9054 217.2409 540.2636L629.5111 204.0237C656.0465 182.382 695.1018 186.3491 716.7435 212.8844L721.7998 219.084C743.4415 245.6193 739.4744 284.6746 712.9391 306.3164L300.6689 642.5563C274.1335 664.198 235.0782 660.2309 213.4365 633.6956Z" rx="62" ry="62" style="transform-origin: 465.09px 423.29px;"/><path fill="#07aff9" fill-opacity="0.48" stroke="" stroke-opacity="0" stroke-width="10" id="tSvg14a25cae55e" title="Ellipse 4" d="M326.59 49.79C363.3169 49.79 393.09 76.8768 393.09 110.29C393.09 143.7032 363.3169 170.79 326.59 170.79C289.8631 170.79 260.09 143.7032 260.09 110.29C260.09 76.8768 289.8631 49.79 326.59 49.79Z" style="transform-origin: 326.59px 110.29px;"/><path fill="" fill-opacity="0" stroke="#000000" stroke-opacity="1" stroke-width="6" id="tSvg7f59787f3b" title="Ellipse 8" d="M326.59 43.79C367.1829 43.79 400.09 73.7869 400.09 110.79C400.09 147.7931 367.1829 177.79 326.59 177.79C285.9971 177.79 253.09 147.7931 253.09 110.79C253.09 73.7869 285.9971 43.79 326.59 43.79Z" style="transform-origin: 326.59px 110.79px;"/><path fill="none" fill-opacity="1" stroke="#000000" stroke-opacity="1" stroke-width="6" id="tSvg10099318db6" title="Ellipse 9" d="M526.09 43.29C566.6829 43.29 599.59 73.2869 599.59 110.29C599.59 147.2931 566.6829 177.29 526.09 177.29C485.4971 177.29 452.59 147.2931 452.59 110.29C452.59 73.2869 485.4971 43.29 526.09 43.29Z" style="transform-origin: 526.09px 110.29px;"/><path fill="#07aff9" fill-opacity="0.48" stroke="none" stroke-opacity="1" stroke-width="10" id="tSvgdbadd645e1" title="Ellipse 5" d="M526.09 49.79C562.8169 49.79 592.59 76.8768 592.59 110.29C592.59 143.7032 562.8169 170.79 526.09 170.79C489.3631 170.79 459.59 143.7032 459.59 110.29C459.59 76.8768 489.3631 49.79 526.09 49.79Z" style="transform-origin: 526.09px 110.29px;"/><path fill="transparent" stroke="#000000" fill-opacity="1" stroke-width="6" stroke-opacity="1" id="tSvg199f6187b91" title="Path 6" d="M413.09 109.291C413.09 109.291 414.6807 96.9084 426.09 96.791C438.131 96.667 439.09 109.291 439.09 109.291"/><path fill="#000000" fill-opacity="1" stroke="" stroke-opacity="0" stroke-width="1" id="tSvg14ae50e2b6d" title="Rectangle 10" d="M400.09 108.29H416.09V113.29H400.09Z" style="transform-origin: 408.09px 110.79px;"/><path fill="#000000" fill-opacity="1" stroke="none" stroke-opacity="1" stroke-width="1" id="tSvg14a964ee797" rx="0" ry="0" title="Rectangle 11" d="M436.09 108.29H452.09V113.29H436.09Z" style="transform-origin: 444.09px 110.79px;"/><path fill="#ffffff" fill-opacity="1" stroke="" stroke-opacity="0" stroke-width="1" id="tSvg15714315137" title="Ellipse 10" d="M546.6209 73.79C552.9722 73.79 558.1209 78.9387 558.1209 85.29C558.1209 91.6413 552.9722 96.79 546.6209 96.79C540.2697 96.79 535.1209 91.6413 535.1209 85.29C535.1209 78.9387 540.2697 73.79 546.6209 73.79Z" style="transform-origin: 546.62px 85.29px;"/></svg>